<svg xmlns="http://www.w3.org/2000/svg" viewBox="0 0 1163.83 259.83"><title>underscore-logo</title><g id="Layer_2" data-name="Layer 2"><g id="Layer_1-2" data-name="Layer 1"><path d="M368.83,64.26l7-20h-347l-6,20s141-2,184-2C336.83,62.26,368.83,64.26,368.83,64.26Z" style="fill:#0b000b"/><path d="M978.57,64.59c77.1.16,158.36,1.22,178.25.67,3-6,5-17,7-21-11.58,0-93.49,1.37-185.78,1.66-59.08.19-201.44.34-282.89.34-40.67,0-247.33-1-247.33-1l-6,20s205-1,256.67-1C772.94,64.26,916.11,64.46,978.57,64.59Z" style="fill:#0b000b"/><path d="M160.72,105c-13,39.12-19.23,59-27.38,86.72-4.24,14.34-12.06,41.4-17.28,64.87H76.94c11.41-36.84,9.45-30,18.26-58,.33-.65.33-1.3.65-2l-2.61-1C88.67,201.14,82.15,208,73,219.08,69.11,224,56.4,239.94,39.45,259.5L0,253.31c14.67-54.12,10.43-37.17,21.84-82.15,15-58.35,10.76-41.08,20.86-79.87l35.21,17.93c-6.19,17.6-12.39,40.42-18.58,62.59-3.59,13-7.17,25.43-10.11,36.51l6.52,3.26A392.64,392.64,0,0,0,84.43,176c9.13-12.39,20.54-27.71,27.71-39.77,4.89-11.41,10.43-26.41,17.6-45Z" style="fill:#e02945"/><path d="M290.79,101.71c-7.82,22.82-16.63,51.18-24.12,76-7.82,25.75-12.06,41.4-20.86,78.89H206.68c7.17-20.86,17.6-54.77,22.17-69.11l10.43-31-5.22-2.61c-5.87,5.87-6.85,7.5-24.45,26.41-12.71,13.69-22.82,24.78-34.88,41.4-2.61,9.45-5.54,20.86-9.45,34.88H126.81c8.8-24.78,14.34-42.38,28.36-87,9.13-29,14.34-45.64,23.47-79.54l32.93,14c-10.76,30.32-10.11,35.54-19.23,61-1,2.61-2,5.22-2.61,7.5l2.28,2a404.68,404.68,0,0,0,35.53-39.12c8.15-10.11,17.28-22.17,32.6-44.66Z" style="fill:#e02945"/><path d="M441.08,14C431,43.68,422.17,73.35,413,105.63c-5.22,18.58-16,55.75-23.15,82.15-9.45,34.56-13.69,54.12-16.3,68.79H335.78l17-55.75c-2.28,2.61-5.22,5.54-9.13,9.78-18.26,19.23-27.38,27.38-44.66,49.23L266,253.31c1-21.19,6.52-54.12,15.32-83.13,9.13-30,23.47-60,30-67.81,8.15-3.91,16.63-6.85,34.23-11.74,11.08,6.85,22.49,16.63,31.95,26.73,4.89-16.3,8.8-30,10.76-37.49C402,28.36,404.56,18.26,408.8,0ZM365.44,158.44c2.28-7.82,4.56-15.65,6.85-22.82-11.08-10.43-20.21-16.63-29-20.86-4.89,6.19-16,27.71-24.12,51.83a288,288,0,0,0-13,53.14l3.26,1.63c11.08-11.08,17.28-17.28,28.69-30C347.51,180.93,356.64,171.15,365.44,158.44Z" style="fill:#e02945"/><path d="M527.79,162l-8.48,37.16h-1a234.6,234.6,0,0,1-40.75,34.88c-16.3,11.08-28.36,17.6-45.31,24.12h-14c-15-14.67-20.54-28-20.54-45.64,0-21.52,8.15-52.16,23.15-75.31,9.45-14.67,21.52-26.41,32.93-35.86,10.43-3.59,23.15-7.5,37.49-11.08,11.08,7.82,23.8,22.17,25.43,28.36,0,15.65-10.76,34.88-22.82,45.64-12.39,11.08-32.27,20.86-56.73,28A87.46,87.46,0,0,0,435.53,207c0,11.08,3.26,19.23,8.48,26.08,8.48-3.59,18.58-9.13,31-17.93,19.89-14,33.25-27.71,46.95-53.14Zm-76.61-11.74A194,194,0,0,0,440.42,178a106.22,106.22,0,0,0,23.47-13.69c8.8-7.17,17.28-22.82,17.28-37.17a23.46,23.46,0,0,0-3.91-12.71C467.48,122.9,458.68,135,451.18,150.29Z" style="fill:#e02945"/><path d="M608,205.38l16,5.54C620.7,222,604.4,246.79,592.33,258.2H579c-17.6-22.17-25.75-41.08-30.64-69.11l6.85-11.74c6.52-3.59,22.49-12.39,33.9-28.69,5.87-8.48,7.17-15.32,7.17-21.19a31.68,31.68,0,0,0-.33-5.87c-24.78,18.91-49.88,54.12-59,83.78l-15.32,51.18H483.12c7.82-20.86,21.19-56.07,31-85.09,15-44,22.49-71.4,25.75-84.11l31.62,11.41L560.06,134c16-20.21,34.88-37.17,55.75-43.36,7.82,5.87,17.93,17.93,19.56,25.1-1.3,5.87-6.52,24.45-25.75,41.4-11.08,9.78-20.21,13.69-35.86,21.84,4.24,17.28,11.74,33.9,21.19,46.62Z" style="fill:#e02945"/><path d="M689.81,144.42c4.56-14,3.59-26.73-3.91-34.88-6.52,3.26-12.39,9.45-16.3,17-1.63,10.76,8.48,24.78,19.89,46,9.13,17,12.39,23.47,12.39,32.27,0,11.41-4.24,22.82-8.8,28.36-14,11.41-29.34,20.21-42.71,25.1H633.08c-5.87-3.91-13.37-13-19.56-25.1a218.47,218.47,0,0,1-21.19,25.1l-5.87-23.8c9.45-10.76,17.93-23.47,27.06-40.1l18.58,6.19c-2,22.17,2,32.93,9.45,43a50.67,50.67,0,0,0,18.91-12.06,46.4,46.4,0,0,0,5.22-22.17c0-5.22-.65-11.41-10.76-30-6.19-11.08-18.58-27.38-19.56-43,4.89-21.84,31-39.45,53.79-46.29,8.48,3.26,14,6.85,17.6,12.39L712,89l26.73,9.45A393.68,393.68,0,0,0,711,147.35Z" style="fill:#e02945"/><path d="M805.21,200.49l7.5,20.21c-22.82,23.47-46,32.6-59.66,37.49H732.18a60.53,60.53,0,0,1-24.78-47.92c0-15.32.33-31,11.41-55.42,14.34-31.3,36.84-52.16,69.77-64.88,7.5,2.93,12.39,6.19,15.65,10.76L808.8,89l26.41,9.78a428.82,428.82,0,0,0-27.06,48.58l-20.54-2.93c2.93-14.67,3.59-22.17,0-28.69-17,9.78-28,24.12-35.53,42.38a113.37,113.37,0,0,0-9.13,44c0,14,2.61,26.41,13.69,35.53C772.94,231.46,792.5,219.4,805.21,200.49Z" style="fill:#e02945"/><path d="M884.1,233.75C871.71,245.81,861,252,844.65,258.2H820.53c-9.45-13-17.6-21.52-17.6-44.66,0-39.77,24.12-97.15,60.64-120.95l17,3.91,17.93-5.22c15,13.37,23.8,25.43,26.41,34.56C928.11,155.83,917.68,200.82,884.1,233.75Zm6.52-103.34c-2-7.82-4.56-13.69-7.82-18.26a76,76,0,0,0-17,17c-12.71,17.28-26.08,50.53-26.08,79.22,0,12.06,2.28,19.89,5.87,25.75a89.22,89.22,0,0,0,15-13C881.49,198.21,891.27,163,890.62,130.4Z" style="fill:#e02945"/><path d="M1030.47,217.12l12.06,13a140.34,140.34,0,0,1-36.51,28H991.68c-7.82-11.08-15-20.54-20.54-32.6-2.28-4.89-8.15-18.91-10.43-32.6l9.45-16.3c6.85-3.26,17.6-11.08,25.1-17.6,8.48-7.5,15-19.56,15-31.95a35.91,35.91,0,0,0-.65-5.87c-21.19,17.28-46.62,52.16-56.4,77.92-5.87,19.89-10.76,38.47-17.28,57.38H896.16C911.48,221,919.3,199.84,932,160.72c8.15-25.1,15-46.95,20.86-74l32.93,12.06c-4.89,16.63-8.15,27.38-10.76,34.88,17-21.19,34.23-35.86,55.75-43,10.76,9.13,18.58,18.91,20.21,23.15-2.61,16.63-15.32,37.82-33.25,51.18-11.41,8.48-24.78,14-32.6,17.28a111.44,111.44,0,0,0,11.41,31,214.18,214.18,0,0,0,12.71,21.19C1016.78,229.83,1023,226.9,1030.47,217.12Z" style="fill:#e02945"/><path d="M1066,209.95c0,9.13,2.93,16.3,7.17,22.82a108.68,108.68,0,0,0,22.49-17.93l20.21,6.19c-16.63,16.63-31.95,28.36-53.14,37.16h-14.67c-13.69-16.63-19.23-31-19.23-44.34,0-26.08,11.08-58.68,28-82.81,9.78-14,18.58-23.15,28.69-29.34,5.54-2.93,24.13-8.8,36.19-11.41,10.43,8.15,23.8,22.49,25.43,27.38h.33c0,15.32-15.65,35.86-32.6,45a86.74,86.74,0,0,1-19.56,7.17c8.8-.33,18.26-.33,29-.65,17.28-.33,25.75-1,35.53-2l-8.48,16.63c-10.43,0-21.84-.33-46.29-.33-8.48,0-23.15,0-35.53,1.3A108,108,0,0,0,1066,209.95Zm9.45-44.34c5.22-2,9.78-4.56,16.63-8.8,10.76-6.85,18.26-18.91,18.26-29.67,0-3.26-1.3-7.5-3.26-11.41-4.89,4.89-10.43,11.74-17,21.19C1084.58,144.75,1079.69,154.85,1075.46,165.61Z" style="fill:#e02945"/></g></g></svg>